<?xml version="1.0" encoding="utf-8"?>
<!-- Generator: Adobe Illustrator 24.1.1, SVG Export Plug-In . SVG Version: 6.00 Build 0)  -->
<svg version="1.1" id="Layer_1" xmlns="http://www.w3.org/2000/svg" xmlns:xlink="http://www.w3.org/1999/xlink" x="0px" y="0px"
	 viewBox="0 0 512 512" style="enable-background:new 0 0 512 512;" xml:space="preserve">
<g>
	<path d="M396.8,75.1c5.8,0,10.5-4.7,10.5-10.5c0-5.8-4.7-10.5-10.5-10.5c-5.8,0-10.5,4.7-10.5,10.5C386.2,70.3,391,75.1,396.8,75.1
		z M410.2,165.9c0,0-13.4-67.3-101-49.1c-8.9-30.4-7.3-52.7,12.2-73.4c26.4-28,67.8-12.6,67.8-12.6V7.7C374.5,1.2,360.7,0,345.3,0
		c-56.4,0-87.6,42.2-101,70.6L85.6,362.3l44.6-8.5L48.3,512l57.2-10.1l43.8-124.6C273.4,377.3,432.5,332.7,410.2,165.9z
		 M463.7,109.5l-34.9-33.7l-27.6,33.7H463.7z M170,341.2c0,0,4.1-0.8,11.4-2.4c7.3-1.6,17.4-4.1,29.6-7.3c6.1-1.6,12.6-3.7,19.5-6.1
		c6.9-2.4,14.2-4.9,21.1-8.1c7.3-2.8,14.6-6.5,21.9-10.5c7.3-4.1,14.2-8.5,20.7-13.8c1.6-1.2,3.2-2.4,4.9-4.1l4.9-4.1
		c2.8-2.8,6.1-5.7,8.9-8.9c2.8-2.8,5.3-6.1,7.7-9.3c1.2-1.6,2.4-3.2,3.7-4.9l1.6-2.4l1.6-2.4c0.8-1.6,2-3.2,2.8-4.9
		c0.8-1.6,1.6-3.2,2.8-4.9c0.4-0.8,0.8-1.6,1.2-2.4c0.4-0.8,0.8-1.6,1.2-2.4c0.8-1.6,1.6-3.2,2-4.9c1.2-3.2,2.4-6.5,3.7-9.7
		c0.8-3.2,2-6.5,2.8-9.3c0.8-2.8,1.2-6.1,2-8.5c0.4-2.8,0.8-5.3,1.2-8.1c0.4-2.4,0.8-4.9,0.8-6.9c0.4-2,0.4-4.1,0.8-6.1
		c0.4-7.3,0.4-11.4,0.4-11.4l6.5,0.4c0,0-0.4,4.5-0.8,11.8c-0.4,2-0.4,4.1-0.8,6.1c-0.4,2.4-0.4,4.9-1.2,7.3
		c-0.4,2.4-1.2,5.3-1.6,8.1c-0.8,2.8-1.6,5.7-2.4,8.9c-0.8,3.2-2,6.1-3.2,9.7c-1.2,3.2-2.4,6.5-4.1,10.1c-0.8,1.6-1.6,3.2-2.4,4.9
		c-0.4,0.8-0.8,1.6-1.2,2.4c-0.4,0.8-0.8,1.6-1.2,2.4c-0.8,1.6-2,3.2-2.8,5.3c-1.2,1.6-2,3.2-3.2,4.9c-0.4,0.8-1.2,1.6-1.6,2.4
		l-1.6,2.4c-1.2,1.6-2.4,3.2-3.7,4.9c-2.8,3.2-5.3,6.5-8.5,9.3c-2.8,3.2-6.1,5.7-9.3,8.9l-4.9,4.1c-1.6,1.2-3.2,2.4-5.3,3.7
		c-6.9,4.9-14.2,9.3-21.5,13.4c-7.3,3.7-15,7.3-22.3,10.1s-14.6,5.3-21.5,7.3s-13.4,4.1-19.9,5.3c-12.2,2.8-22.7,5.3-30,6.5
		C174,340.4,170,341.2,170,341.2z"/>
</g>
</svg>
